PathFileType	4	(X/Y/Z)	s05c0301.trc
DataRate	CameraRate	NumFrames	NumMarkers	Units	OrigDataRate	OrigDataStartFrame	OrigNumFrames
200	200	5	50	mm	200	250	2000
Frame#	Time	racr			lacr			c7			jug			rlel			rdr			llel			ldr			s2			lic			ric			lasi			rasi			rpsi			lpsi			rgt			lgt			rth1			rth2			rth3			rth4			rlfc			rmfc			rsh1			rsh2			rsh3			rsh4			rlmal			rmmal			rcal			rtoe			rmt5			lth1			lth2			lth4			lth3			llfc			lmfc			lsh1			lsh2			lsh3			lsh4			llmal			lmmal			lcal			ltoe			lmt5			SBIKE			LBIKE			RBIKE			
		X1	Y1	Z1	X2	Y2	Z2	X3	Y3	Z3	X4	Y4	Z4	X5	Y5	Z5	X6	Y6	Z6	X7	Y7	Z7	X8	Y8	Z8	X9	Y9	Z9	X10	Y10	Z10	X11	Y11	Z11	X12	Y12	Z12	X13	Y13	Z13	X14	Y14	Z14	X15	Y15	Z15	X16	Y16	Z16	X17	Y17	Z17	X18	Y18	Z18	X19	Y19	Z19	X20	Y20	Z20	X21	Y21	Z21	X22	Y22	Z22	X23	Y23	Z23	X24	Y24	Z24	X25	Y25	Z25	X26	Y26	Z26	X27	Y27	Z27	X28	Y28	Z28	X29	Y29	Z29	X30	Y30	Z30	X31	Y31	Z31	X32	Y32	Z32	X33	Y33	Z33	X34	Y34	Z34	X35	Y35	Z35	X36	Y36	Z36	X37	Y37	Z37	X38	Y38	Z38	X39	Y39	Z39	X40	Y40	Z40	X41	Y41	Z41	X42	Y42	Z42	X43	Y43	Z43	X44	Y44	Z44	X45	Y45	Z45	X46	Y46	Z46	X47	Y47	Z47	X48	Y48	Z48	X49	Y49	Z49	X50	Y50	Z50	
250	1.2500	411.571478	1360.065161	-151.764340	411.991598	1371.603315	-444.347874	395.106170	1452.211730	-301.395674	378.389606	1293.935914	-299.915508	504.009281	1116.924182	-58.711587	682.680156	918.378945	-102.066703	488.168281	1114.239667	-529.138948	676.217942	916.387305	-463.338415	-113.988550	1156.926176	-280.126687	31.435555	1169.951657	-425.892768	39.037513	1193.274228	-148.443545	82.188192	1119.078258	-393.163179	79.707937	1132.148729	-174.092173	-81.604680	1204.256439	-243.154692	-79.774959	1204.470004	-328.196266	1.061840	1069.291939	-106.607676	-40.030534	1060.581213	-448.410014	101.924289	1013.450100	-92.848044	190.711781	1001.459303	-86.874824	259.030825	945.728021	-87.751663	204.946733	1033.776871	-100.042745	393.584921	868.520935	-114.623294	380.153223	864.056476	-223.300262	329.705199	777.023174	-92.163351	318.912035	689.069338	-103.869303	269.383164	619.630830	-108.557883	347.473555	681.680086	-128.983582	226.457914	494.034879	-121.005930	239.208284	522.943224	-199.474345	154.302851	461.895878	-166.646177	448.507731	437.406539	-159.992482	347.261919	414.894257	-95.249747	38.670674	942.077266	-470.933789	107.204145	890.458471	-474.613439	137.288454	910.692131	-463.661594	140.428239	806.032151	-475.866517	214.664690	673.423855	-453.470487	206.339644	667.270544	-343.689881	124.168839	582.049328	-471.301293	88.904238	503.206292	-454.439469	16.744260	451.843769	-450.432408	113.774845	487.898777	-429.727570	-54.255509	350.852740	-435.078682	-20.304855	372.205140	-359.257868	-124.751124	326.551962	-388.523011	155.340643	237.819372	-402.734787	42.735988	238.288434	-461.876298	-220.853100	910.721939	-275.245062	-53.492975	79.166981	-475.037694	-53.467441	79.177853	-77.422347	
251	1.2550	411.574052	1360.085946	-151.771505	411.975405	1371.605509	-444.338319	395.083226	1452.219768	-301.377566	378.375014	1293.905429	-299.922674	504.000037	1116.939903	-58.723459	682.693121	918.396179	-102.089514	488.186901	1114.238450	-529.109186	676.201644	916.389760	-463.317627	-114.000863	1156.913537	-280.131985	31.422440	1169.945063	-425.912624	39.028990	1193.276918	-148.472724	82.166078	1119.078778	-393.180313	79.677178	1132.160708	-174.090880	-81.614584	1204.250210	-243.174620	-79.779167	1204.471275	-328.221715	1.036060	1069.315967	-106.609306	-40.042103	1060.573690	-448.396556	101.937820	1013.509068	-92.837531	190.679905	1001.534843	-86.866673	259.016398	945.838418	-87.733253	204.930054	1033.845388	-100.039879	393.596488	868.644042	-114.608568	380.195271	864.174953	-223.265203	329.709909	777.192210	-92.156060	318.892111	689.279363	-103.864174	269.351576	619.814307	-108.537807	347.457783	681.812383	-128.975956	226.403865	494.194755	-120.996569	239.190854	523.080828	-199.476855	154.257762	462.077333	-166.609512	448.465032	437.485557	-159.977122	346.963991	415.591696	-94.788297	38.655112	942.054713	-470.926473	107.192988	890.421608	-474.603411	137.276450	910.648356	-463.657751	140.404521	805.984618	-475.840805	214.621167	673.383958	-453.463998	206.298758	667.222205	-343.709442	124.150017	581.979505	-471.296223	88.923047	503.113863	-454.433854	16.761296	451.750811	-450.427575	113.791003	487.846888	-429.715964	-54.218813	350.740930	-435.056070	-20.255897	372.043614	-359.274850	-124.706735	326.424768	-388.522773	155.408194	237.716186	-402.724273	42.798634	238.159121	-461.880774	-220.849432	910.718507	-275.246255	-53.486629	79.161861	-475.039593	-53.463113	79.191952	-77.429151	
252	1.2600	411.561559	1360.094496	-151.780977	411.978982	1371.619001	-444.323358	395.083622	1452.202940	-301.405602	378.357066	1293.880134	-299.915000	503.991188	1116.937694	-58.744076	682.687375	918.401702	-102.101828	488.175518	1114.246896	-529.127006	676.201147	916.389730	-463.329919	-114.021994	1156.910068	-280.155775	31.425068	1169.923579	-425.902735	39.028991	1193.276918	-148.472678	82.152865	1119.071567	-393.190819	79.660285	1132.180117	-174.100725	-81.648413	1204.248253	-243.184782	-79.796638	1204.463359	-328.210360	1.029846	1069.348013	-106.614048	-40.039298	1060.549450	-448.402204	101.920011	1013.565780	-92.817073	190.675174	1001.608408	-86.850554	259.045613	945.931437	-87.728240	204.905606	1033.928003	-100.022353	393.632239	868.767580	-114.573969	380.237040	864.308391	-223.239391	329.707780	777.356625	-92.147358	318.923829	689.404885	-103.856540	269.313263	620.005630	-108.534678	347.448574	681.969617	-128.950787	226.356797	494.414228	-121.004644	239.119787	523.283127	-199.508949	154.229245	462.295710	-166.629769	448.420142	437.561770	-159.983632	346.904591	415.727323	-94.790232	38.632495	942.043020	-470.919482	107.158727	890.400792	-474.613529	137.245992	910.613215	-463.671280	140.362533	805.956135	-475.824415	214.566085	673.340039	-453.442233	206.246417	667.177312	-343.692362	124.138741	581.905345	-471.291499	88.929531	503.025947	-454.443214	16.779685	451.629309	-450.445676	113.820005	487.804079	-429.720303	-54.174956	350.620706	-435.049924	-20.149670	371.867553	-359.299790	-124.656245	326.311988	-388.526624	155.457304	237.637288	-402.726257	42.876031	238.027896	-461.880768	-220.841319	910.718497	-275.242087	-53.498246	79.147099	-475.038285	-53.463682	79.172986	-77.427279	
253	1.2650	411.542195	1360.122953	-151.819075	411.970088	1371.614521	-444.310542	395.078827	1452.203346	-301.422084	378.327510	1293.892112	-299.933467	503.966747	1116.942843	-58.742328	682.689474	918.427969	-102.109928	488.156384	1114.232525	-529.134096	676.191295	916.407191	-463.363939	-114.037578	1156.896528	-280.155012	31.396124	1169.923527	-425.916730	38.979614	1193.306003	-148.479930	82.125625	1119.071927	-393.201192	79.639341	1132.211738	-174.119964	-81.659209	1204.241458	-243.210972	-79.803835	1204.429762	-328.232262	1.018259	1069.366674	-106.625130	-40.071277	1060.540634	-448.404337	101.915204	1013.595881	-92.801466	190.668547	1001.691011	-86.848757	259.050627	946.039456	-87.665334	204.870783	1034.011996	-100.031448	393.644931	868.870051	-114.569565	380.269692	864.425281	-223.169899	329.709923	777.508424	-92.151920	318.943453	689.591806	-103.858936	269.296081	620.169657	-108.527729	347.455934	682.105831	-128.922591	226.328016	494.550888	-121.031528	239.125563	523.362445	-199.486548	154.208337	462.469476	-166.644561	448.375451	437.640905	-159.976048	346.830338	415.878091	-94.791782	38.596691	942.139211	-470.860474	107.129528	890.366301	-474.599282	137.208141	910.589595	-463.671185	140.325810	805.924927	-475.816129	214.515800	673.314949	-453.427822	206.200926	667.141050	-343.673301	124.109636	581.849163	-471.293927	88.931775	502.938560	-454.446938	16.803601	451.539769	-450.428603	113.796147	487.721898	-429.690616	-54.128641	350.523731	-435.071225	-20.099358	371.737015	-359.286200	-124.599964	326.193786	-388.544478	155.515591	237.536474	-402.726175	42.942053	237.931231	-461.883277	-220.853355	910.722632	-275.243356	-53.496450	79.156713	-475.027147	-53.454794	79.183345	-77.420615	
254	1.2700	411.550904	1360.125642	-151.848303	411.969897	1371.622385	-444.276904	395.039118	1452.185303	-301.390700	378.305412	1293.872217	-299.933254	503.921889	1116.927148	-58.728332	682.668781	918.448646	-102.101234	488.142891	1114.209321	-529.154686	676.159252	916.401790	-463.322094	-114.060152	1156.899235	-280.172988	31.377092	1169.905055	-425.929785	38.913532	1193.355976	-148.486043	82.124618	1119.066552	-393.201501	79.612879	1132.230926	-174.108287	-81.678987	1204.254561	-243.237118	-79.818568	1204.432110	-328.249632	0.981779	1069.377694	-106.612618	-40.062403	1060.515936	-448.397741	101.914150	1013.636181	-92.785331	190.665919	1001.752673	-86.832610	259.045922	946.136405	-87.668258	204.859876	1034.093325	-100.038880	393.671461	869.013529	-114.541351	380.298568	864.542913	-223.212782	329.718043	777.632753	-92.137062	318.942178	689.745577	-103.861979	269.258645	620.356471	-108.533788	347.413017	682.201519	-128.909083	226.299784	494.717962	-121.022444	239.082403	523.537068	-199.511073	154.161337	462.617121	-166.654372	448.311712	437.726640	-159.977571	346.752374	415.985964	-94.799667	38.615037	942.008941	-470.906428	107.094452	890.350597	-474.610515	137.190000	910.553831	-463.666094	140.282493	805.903054	-475.822873	214.468158	673.270860	-453.419731	206.140154	667.080135	-343.673461	124.094478	581.806056	-471.285417	88.937835	502.843273	-454.440476	16.835917	451.453352	-450.423006	113.811838	487.671311	-429.687258	-54.069294	350.432139	-435.067035	-20.075535	371.672583	-359.282044	-124.538794	326.080180	-388.543563	155.578684	237.442708	-402.718891	43.014177	237.815138	-461.882342	-220.849413	910.713991	-275.236370	-53.489433	79.158172	-475.038055	-53.454137	79.168376	-77.435973	
